<svg width="256" height="159" viewBox="0 0 256 159" fill="none" xmlns="http://www.w3.org/2000/svg">
<rect y="39" width="218" height="120" rx="35" fill="#222222"/>
<path d="M51.64 113.4C49.2933 113.4 47.1733 113.067 45.28 112.4C43.4133 111.707 41.8133 110.733 40.48 109.48C39.1733 108.2 38.16 106.653 37.44 104.84C36.72 103.027 36.36 100.973 36.36 98.68C36.36 96.4133 36.72 94.3733 37.44 92.56C38.1867 90.72 39.2133 89.1733 40.52 87.92C41.8533 86.64 43.4267 85.6667 45.24 85C47.08 84.3067 49.0933 83.96 51.28 83.96C53.28 83.96 54.9467 84.1333 56.28 84.48C57.6133 84.8267 58.6133 85.1867 59.28 85.56L58.4 90.64C57.6 90.24 56.64 89.8933 55.52 89.6C54.4267 89.3067 53.16 89.16 51.72 89.16C48.92 89.16 46.76 89.9733 45.24 91.6C43.72 93.2 42.96 95.56 42.96 98.68C42.96 105.027 45.9333 108.2 51.88 108.2C53.08 108.2 54.1733 108.067 55.16 107.8C56.1467 107.507 57.0533 107.107 57.88 106.6L59.48 111.44C58.7867 111.92 57.7867 112.373 56.48 112.8C55.1733 113.2 53.56 113.4 51.64 113.4ZM71.1366 105.16H69.4166V113H63.2166V92.24H69.4166V100.36H71.1766L76.9366 92.24H83.0166L76.0966 102L83.6166 113H76.4166L71.1366 105.16ZM85.8728 92.24H91.9928V104.96L100.753 92.24H106.713V113H100.633V100.28L91.9128 113H85.8728V92.24ZM124.145 97.08H119.425C119.292 99.6667 119.079 101.867 118.785 103.68C118.519 105.467 118.119 106.96 117.585 108.16H124.145V97.08ZM128.425 113H115.025L114.705 118.92H109.345V108.16H111.385C111.865 107.573 112.252 106.84 112.545 105.96C112.865 105.053 113.132 103.96 113.345 102.68C113.559 101.4 113.719 99.9067 113.825 98.2C113.959 96.4667 114.092 94.48 114.225 92.24H130.345V108.16H134.105V118.92H128.745L128.425 113ZM144.848 105.16H143.128V113H136.928V92.24H143.128V100.36H144.888L150.648 92.24H156.727L149.808 102L157.328 113H150.128L144.848 105.16ZM159.584 92.24H165.704V104.96L174.464 92.24H180.424V113H174.344V100.28L165.624 113H159.584V92.24Z" fill="white"/>
<path d="M217.5 0L225.233 14.6998L240.13 7.35285L237.746 23.7907L254.116 26.6028L242.525 38.5L254.116 50.3972L237.746 53.2093L240.13 69.6472L225.233 62.3002L217.5 77L209.767 62.3002L194.87 69.6472L197.254 53.2093L180.884 50.3972L192.475 38.5L180.884 26.6028L197.254 23.7907L194.87 7.35285L209.767 14.6998L217.5 0Z" fill="#FF4444"/>
</svg>
